<?xml version="1.0" encoding="UTF-8"?>
<svg id="Capa_1" xmlns="http://www.w3.org/2000/svg" version="1.1" viewBox="0 0 110 107.8">
  <!-- Generator: Adobe Illustrator 29.3.1, SVG Export Plug-In . SVG Version: 2.1.0 Build 151)  -->
  <defs>
    <style>
      .st0 {
        fill-rule: evenodd;
      }
    </style>
  </defs>
  <path class="st0" d="M55.5,93.4c14.3,0,23.8-16.6,30.6-29.6l-5.2-3.1c-3.1,5.8-5.6,10-9.7,15.4-1.9,2.5-5.7-.4-3.8-2.9,3.9-5.1,6.3-9.2,9.3-14.9l-36.1-21.2c-5.3,12.3-13.1,22.1-25.1,29.5,1.5,2.5,4,5.5,6.7,8.2,4.8-2.7,7.8-5.5,11.6-10.2,2-2.4,5.7.6,3.7,3-3.8,4.7-7,7.7-11.7,10.6,2.8,2.5,5.9,5,9.2,7.2,4.7-2.7,7.1-5.6,10.4-9.9,1.9-2.5,5.7.5,3.8,2.9-3.1,4-5.6,7.1-9.7,9.8,5.4,3.1,11,5.2,16,5.2h0ZM20.3,79.5c-3-2.6-13.4-13.3-8.2-16.4,11.8-7,19.4-16.4,24.4-28.4-1.6-.9-4.6-2.1-3.2-4.6h0c3.8-6.5,12.1-15.2,20.8-10h0s10.3,6,10.3,6l8.8-15.5h0c.7-1.2,2.1-1.6,3.3-.9l15,8.8c1.1.7,1.6,2.1.9,3.3l-8.8,15.5,10.3,6.1c8.7,5.1,5.5,16.6,1.8,23.2-1.4,2.5-3.9.5-5.3-.3-7.7,14.7-18.1,32-34.7,32-11.9,0-26.1-9.9-35.2-18.7h0ZM81,55.2l-42.3-24.8c2.7-3.9,7.7-9.1,12.9-6.2l39.7,23.3c5.1,3,3.1,10.3,1.2,14.5l-11.6-6.8ZM79.3,34.9l7.6-13.4-10.9-6.4-7.6,13.4,10.9,6.4Z"/>
</svg>