<?xml version="1.0" encoding="UTF-8"?>
<svg id="Capa_1" data-name="Capa 1" xmlns="http://www.w3.org/2000/svg" viewBox="0 0 52.14 57.96">
  <defs>
    <style>
      .cls-1 {
        fill: #f3eee8;
      }

      .cls-2 {
        fill: #92d178;
      }
    </style>
  </defs>
  <g>
    <path class="cls-1" d="M10.38,39.34s-.06-.09-.08-.17l-.38-1.99h.3l.32,1.79h0l.52-1.68h.12s.08.01.11.04.05.06.07.12l.46,1.52h0l.32-1.79h.3l-.38,1.99c-.01.07-.04.13-.08.16-.04.04-.09.05-.15.05h-.13l-.51-1.69h0l-.53,1.69h-.13c-.06,0-.11-.02-.15-.05Z"/>
    <path class="cls-1" d="M12.75,39.25c-.11-.11-.17-.25-.17-.42v-.44c0-.19.06-.33.17-.44s.26-.17.45-.17h.26c.18,0,.32.05.43.16s.16.25.16.44v.3h-1.18v.15c0,.1.03.18.09.23.06.06.14.09.23.09h.24c.09,0,.17-.03.23-.07.06-.05.09-.11.09-.2h.29c0,.16-.06.29-.17.38-.11.1-.26.15-.44.15h-.24c-.19,0-.33-.05-.45-.16ZM13.76,38.45v-.06c0-.1-.03-.19-.08-.25s-.13-.09-.22-.09h-.26c-.1,0-.18.03-.23.1-.06.07-.09.15-.09.26v.05h.88Z"/>
    <path class="cls-1" d="M14.53,39.28c-.07-.07-.11-.19-.11-.34v-1.76h.29v1.75c0,.07.01.12.04.15.03.03.08.05.15.05h.13v.26h-.14c-.17,0-.29-.04-.36-.11Z"/>
    <path class="cls-1" d="M15.4,39.25c-.11-.11-.17-.25-.17-.43v-.42c0-.19.06-.33.17-.44s.26-.17.44-.17h.26c.17,0,.31.05.42.14.11.1.16.23.16.39h-.29c0-.08-.03-.15-.08-.2s-.12-.07-.21-.07h-.25c-.09,0-.17.03-.23.1-.06.07-.09.15-.09.26v.4c0,.1.03.19.09.25.06.06.13.09.23.09h.25c.09,0,.16-.03.21-.09.05-.06.08-.14.08-.25h.29c0,.18-.05.32-.16.43-.11.11-.25.17-.42.17h-.26c-.18,0-.33-.05-.44-.16Z"/>
    <path class="cls-1" d="M17.12,39.24c-.11-.11-.17-.26-.17-.44v-.41c0-.18.06-.33.17-.44s.26-.17.45-.17h.27c.19,0,.34.06.45.17s.17.26.17.44v.41c0,.18-.06.33-.17.44s-.27.17-.45.17h-.27c-.19,0-.33-.06-.45-.17ZM17.83,39.15c.1,0,.18-.03.24-.1.06-.07.09-.15.09-.26v-.39c0-.11-.03-.2-.09-.26-.06-.06-.14-.1-.24-.1h-.27c-.1,0-.18.03-.24.1-.06.07-.09.15-.09.26v.39c0,.11.03.2.09.26.06.06.14.1.24.1h.26Z"/>
    <path class="cls-1" d="M20.94,37.92c.09.09.13.22.13.38v1.08h-.29v-1.08c0-.08-.02-.14-.06-.19-.04-.05-.09-.07-.15-.07h-.16c-.08,0-.15.03-.2.08-.05.06-.09.13-.1.23v1.03h-.3v-1.07c0-.09-.02-.15-.05-.2s-.08-.07-.14-.07h-.16c-.08,0-.15.03-.21.1-.06.07-.1.16-.11.27v.97h-.29v-1.58h.28v.21c.04-.07.09-.13.16-.17.06-.04.13-.06.19-.06h.18c.08,0,.16.02.22.06.06.04.11.1.15.18.05-.08.1-.14.17-.18.07-.04.14-.06.22-.06h.19c.15,0,.26.05.35.14Z"/>
    <path class="cls-1" d="M21.6,39.25c-.11-.11-.17-.25-.17-.42v-.44c0-.19.06-.33.17-.44s.26-.17.45-.17h.26c.18,0,.32.05.43.16s.16.25.16.44v.3h-1.18v.15c0,.1.03.18.09.23.06.06.14.09.23.09h.24c.09,0,.17-.03.23-.07.06-.05.09-.11.09-.2h.29c0,.16-.06.29-.17.38-.11.1-.26.15-.44.15h-.24c-.19,0-.33-.05-.45-.16ZM22.61,38.45v-.06c0-.1-.03-.19-.08-.25s-.13-.09-.22-.09h-.26c-.1,0-.18.03-.23.1-.06.07-.09.15-.09.26v.05h.88Z"/>
    <path class="cls-1" d="M24.38,39.27c-.08-.08-.12-.2-.12-.37v-.84h-.28v-.26h.28v-.48h.29v.48h.41v.26h-.41v.83c0,.08.02.14.05.18.03.04.09.05.16.05h.2v.26h-.21c-.17,0-.3-.04-.37-.11Z"/>
    <path class="cls-1" d="M25.4,39.24c-.11-.11-.17-.26-.17-.44v-.41c0-.18.06-.33.17-.44s.26-.17.45-.17h.27c.19,0,.34.06.45.17s.17.26.17.44v.41c0,.18-.06.33-.17.44s-.27.17-.45.17h-.27c-.19,0-.33-.06-.45-.17ZM26.12,39.15c.1,0,.18-.03.24-.1.06-.07.09-.15.09-.26v-.39c0-.11-.03-.2-.09-.26-.06-.06-.14-.1-.24-.1h-.27c-.1,0-.18.03-.24.1-.06.07-.09.15-.09.26v.39c0,.11.03.2.09.26.06.06.14.1.24.1h.26Z"/>
    <path class="cls-1" d="M28.24,39.27c-.08-.08-.12-.2-.12-.37v-.84h-.28v-.26h.28v-.48h.29v.48h.41v.26h-.41v.83c0,.08.02.14.05.18.03.04.09.05.16.05h.2v.26h-.21c-.17,0-.3-.04-.37-.11Z"/>
    <path class="cls-1" d="M29.21,37.17h.29v.83c.05-.07.11-.12.18-.16.07-.04.15-.06.22-.06h.22c.15,0,.27.05.37.15.09.1.14.23.14.4v1.05h-.29v-1.05c0-.09-.02-.16-.07-.21-.04-.05-.1-.08-.17-.08h-.2c-.09,0-.17.03-.25.1-.07.07-.12.16-.14.27v.97h-.29v-2.21Z"/>
    <path class="cls-1" d="M31.16,39.25c-.11-.11-.17-.25-.17-.42v-.44c0-.19.06-.33.17-.44s.26-.17.45-.17h.26c.18,0,.32.05.43.16s.16.25.16.44v.3h-1.18v.15c0,.1.03.18.09.23.06.06.14.09.23.09h.24c.09,0,.17-.03.23-.07.06-.05.09-.11.09-.2h.29c0,.16-.06.29-.17.38-.11.1-.26.15-.44.15h-.24c-.19,0-.33-.05-.45-.16ZM32.17,38.45v-.06c0-.1-.03-.19-.08-.25s-.13-.09-.22-.09h-.26c-.1,0-.18.03-.23.1-.06.07-.09.15-.09.26v.05h.88Z"/>
    <path class="cls-1" d="M33.83,38.07h-.27v-.26h.27v-.12c0-.17.05-.3.14-.39.1-.09.23-.14.41-.14h.15v.25h-.15c-.09,0-.15.02-.2.07-.04.05-.06.12-.06.21v.11h.38v.26h-.38v1.32h-.29v-1.32Z"/>
    <path class="cls-1" d="M34.95,39.26c-.09-.1-.14-.24-.14-.41v-1.04h.29v1.05c0,.09.02.16.07.22s.1.08.17.08h.19c.09,0,.17-.04.24-.11.07-.07.12-.16.15-.27v-.96h.29v1.58h-.28v-.23c-.05.07-.11.13-.19.18-.08.05-.15.07-.22.07h-.2c-.15,0-.28-.05-.37-.15Z"/>
    <path class="cls-1" d="M36.92,39.27c-.08-.08-.12-.2-.12-.37v-.84h-.28v-.26h.28v-.48h.29v.48h.41v.26h-.41v.83c0,.08.02.14.05.18.03.04.09.05.16.05h.2v.26h-.21c-.17,0-.3-.04-.37-.11Z"/>
    <path class="cls-1" d="M38,39.26c-.09-.1-.14-.24-.14-.41v-1.04h.29v1.05c0,.09.02.16.07.22s.1.08.17.08h.19c.09,0,.17-.04.24-.11.07-.07.12-.16.15-.27v-.96h.29v1.58h-.28v-.23c-.05.07-.11.13-.19.18-.08.05-.15.07-.22.07h-.2c-.15,0-.28-.05-.37-.15Z"/>
    <path class="cls-1" d="M39.7,37.81h.28v.23c.04-.07.1-.13.18-.17.08-.04.17-.07.25-.07h.16v.26h-.16c-.13,0-.23.04-.31.12s-.12.18-.12.31v.89h-.29v-1.58Z"/>
    <path class="cls-1" d="M40.91,39.25c-.11-.11-.17-.25-.17-.42v-.44c0-.19.06-.33.17-.44s.26-.17.45-.17h.26c.18,0,.32.05.43.16s.16.25.16.44v.3h-1.18v.15c0,.1.03.18.09.23.06.06.14.09.23.09h.24c.09,0,.17-.03.23-.07.06-.05.09-.11.09-.2h.29c0,.16-.06.29-.17.38-.11.1-.26.15-.44.15h-.24c-.19,0-.33-.05-.45-.16ZM41.92,38.45v-.06c0-.1-.03-.19-.08-.25s-.13-.09-.22-.09h-.26c-.1,0-.18.03-.23.1-.06.07-.09.15-.09.26v.05h.88Z"/>
    <path class="cls-1" d="M16.3,43.03c-.11-.11-.17-.26-.17-.44v-.41c0-.18.06-.33.17-.44s.26-.17.45-.17h.27c.19,0,.34.06.45.17s.17.26.17.44v.41c0,.18-.06.33-.17.44s-.27.17-.45.17h-.27c-.19,0-.33-.06-.45-.17ZM17.01,42.94c.1,0,.18-.03.24-.1.06-.07.09-.15.09-.26v-.39c0-.11-.03-.2-.09-.26-.06-.06-.14-.1-.24-.1h-.27c-.1,0-.18.03-.24.1-.06.07-.09.15-.09.26v.39c0,.11.03.2.09.26.06.06.14.1.24.1h.26Z"/>
    <path class="cls-1" d="M18.15,41.86h-.27v-.26h.27v-.12c0-.17.05-.3.14-.39.1-.09.23-.14.41-.14h.15v.25h-.15c-.09,0-.15.02-.2.07-.04.05-.06.12-.06.21v.11h.38v.26h-.38v1.32h-.29v-1.32Z"/>
    <path class="cls-1" d="M20.08,43.06c-.1-.09-.15-.22-.15-.37h.29c0,.08.03.14.08.19s.12.07.2.07h.28c.08,0,.14-.01.19-.05s.07-.07.07-.12v-.09s-.01-.06-.04-.09c-.03-.03-.06-.04-.11-.05l-.55-.09c-.12-.02-.21-.06-.28-.13s-.1-.14-.1-.23v-.1c0-.12.05-.22.15-.3s.23-.11.4-.11h.27c.16,0,.28.04.38.13.1.09.14.2.14.34h-.29c0-.07-.02-.12-.07-.16-.04-.04-.1-.06-.17-.06h-.26c-.08,0-.14.02-.18.05-.05.03-.07.07-.07.13v.08s.01.06.04.09.07.04.11.05l.55.1c.11.02.2.06.27.13.07.06.1.14.1.23v.12c0,.12-.05.22-.15.3s-.24.11-.41.11h-.28c-.17,0-.31-.05-.41-.14Z"/>
    <path class="cls-1" d="M21.79,43.04c-.11-.11-.17-.25-.17-.42v-.44c0-.19.06-.33.17-.44s.26-.17.45-.17h.26c.18,0,.32.05.43.16s.16.25.16.44v.3h-1.18v.15c0,.1.03.18.09.23.06.06.14.09.23.09h.24c.09,0,.17-.03.23-.07.06-.05.09-.11.09-.2h.29c0,.16-.06.29-.17.38-.11.1-.26.15-.44.15h-.24c-.19,0-.33-.05-.45-.16ZM22.8,42.24v-.06c0-.1-.03-.19-.08-.25s-.13-.09-.22-.09h-.26c-.1,0-.18.03-.23.1-.06.07-.09.15-.09.26v.05h.88Z"/>
    <path class="cls-1" d="M23.45,41.6h.28v.2c.04-.07.1-.12.17-.16.07-.04.14-.06.21-.06h.22c.18,0,.32.05.43.16s.16.25.16.43v.38c0,.13-.02.24-.07.34-.05.1-.12.18-.21.23-.09.05-.19.08-.31.08h-.22c-.06,0-.13-.02-.2-.05s-.12-.08-.17-.13v.79h-.29v-2.21ZM24.31,42.94c.1,0,.18-.04.24-.11.06-.07.09-.17.09-.29v-.36c0-.1-.03-.19-.09-.25s-.13-.1-.23-.1h-.21c-.08,0-.15.03-.22.09-.07.06-.11.14-.14.24v.42c.01.11.05.19.12.26s.15.1.24.1h.2Z"/>
    <path class="cls-1" d="M25.4,43.08c-.09-.08-.14-.19-.14-.32v-.1c0-.13.05-.24.15-.32.1-.08.23-.12.39-.12h.2c.06,0,.13,0,.2.03s.13.05.18.08v-.23c0-.08-.02-.14-.07-.19-.05-.05-.11-.07-.19-.07h-.26c-.08,0-.14.02-.19.06-.05.04-.07.09-.07.15h-.29c0-.14.05-.25.15-.33.1-.08.24-.13.4-.13h.26c.17,0,.3.05.4.14.1.09.15.22.15.37v1.09h-.27v-.21c-.05.07-.11.13-.19.17-.08.04-.16.06-.24.06h-.19c-.16,0-.28-.04-.38-.12ZM25.98,42.96c.09,0,.17-.03.25-.08.07-.05.12-.13.15-.22v-.09s-.1-.06-.16-.09c-.07-.02-.14-.03-.22-.03h-.2c-.07,0-.13.02-.18.06-.05.04-.07.09-.07.15v.1c0,.06.02.11.07.15.05.04.11.05.18.05h.19Z"/>
    <path class="cls-1" d="M27.09,41.6h.28v.23c.04-.07.1-.13.18-.17.08-.04.17-.07.25-.07h.16v.26h-.16c-.13,0-.23.04-.31.12s-.12.18-.12.31v.89h-.29v-1.58Z"/>
    <path class="cls-1" d="M28.28,43.08c-.09-.08-.14-.19-.14-.32v-.1c0-.13.05-.24.15-.32.1-.08.23-.12.39-.12h.2c.06,0,.13,0,.2.03s.13.05.18.08v-.23c0-.08-.02-.14-.07-.19-.05-.05-.11-.07-.19-.07h-.26c-.08,0-.14.02-.19.06-.05.04-.07.09-.07.15h-.29c0-.14.05-.25.15-.33.1-.08.24-.13.4-.13h.26c.17,0,.3.05.4.14.1.09.15.22.15.37v1.09h-.27v-.21c-.05.07-.11.13-.19.17-.08.04-.16.06-.24.06h-.19c-.16,0-.28-.04-.38-.12ZM28.87,42.96c.09,0,.17-.03.25-.08.07-.05.12-.13.15-.22v-.09s-.1-.06-.16-.09c-.07-.02-.14-.03-.22-.03h-.2c-.07,0-.13.02-.18.06-.05.04-.07.09-.07.15v.1c0,.06.02.11.07.15.05.04.11.05.18.05h.19Z"/>
    <path class="cls-1" d="M30.24,43.06c-.08-.08-.12-.2-.12-.37v-.84h-.28v-.26h.28v-.48h.29v.48h.41v.26h-.41v.83c0,.08.02.14.05.18.03.04.09.05.16.05h.2v.26h-.21c-.17,0-.3-.04-.37-.11Z"/>
    <path class="cls-1" d="M31.27,41.34s-.06-.09-.06-.14.02-.11.06-.14.09-.06.15-.06.11.02.15.06c.04.04.06.08.06.14s-.02.11-.06.14c-.04.04-.09.05-.15.05s-.11-.02-.15-.05ZM31.27,41.6h.29v1.58h-.29v-1.58Z"/>
    <path class="cls-1" d="M32.17,43.03c-.11-.11-.17-.26-.17-.44v-.41c0-.18.06-.33.17-.44s.26-.17.45-.17h.27c.19,0,.34.06.45.17s.17.26.17.44v.41c0,.18-.06.33-.17.44s-.27.17-.45.17h-.27c-.19,0-.33-.06-.45-.17ZM32.88,42.94c.1,0,.18-.03.24-.1.06-.07.09-.15.09-.26v-.39c0-.11-.03-.2-.09-.26-.06-.06-.14-.1-.24-.1h-.27c-.1,0-.18.03-.24.1-.06.07-.09.15-.09.26v.39c0,.11.03.2.09.26.06.06.14.1.24.1h.26Z"/>
    <path class="cls-1" d="M33.89,41.6h.28v.22c.05-.07.11-.13.18-.18.08-.04.15-.07.23-.07h.21c.15,0,.27.05.37.15.09.1.14.23.14.4v1.05h-.29v-1.05c0-.09-.02-.16-.07-.21-.04-.05-.1-.08-.17-.08h-.2c-.09,0-.17.03-.25.1-.07.07-.12.16-.14.27v.97h-.29v-1.58Z"/>
    <path class="cls-1" d="M35.71,43.15s-.06-.09-.06-.14.02-.11.06-.15c.04-.04.08-.06.14-.06s.11.02.15.06.06.09.06.15-.02.11-.06.14-.09.05-.15.05-.11-.02-.14-.05Z"/>
  </g>
  <g>
    <g>
      <path class="cls-1" d="M8.42,14.46h1.64l.27,1.23.27,1.24.37-1.24.37-1.23h1.43l.37,1.23.37,1.25.27-1.25.28-1.23h1.57l-1.16,4.34h-1.75l-.35-1.2-.35-1.21-.35,1.21-.35,1.2h-1.74l-1.16-4.34Z"/>
      <path class="cls-1" d="M15.28,17.05c0-1.16.94-1.86,2.35-1.86s2.34.7,2.34,1.86-.94,1.86-2.34,1.86-2.35-.71-2.35-1.86ZM18.3,17.05c0-.56-.27-.82-.67-.82s-.68.26-.68.81.27.82.68.82.67-.26.67-.81Z"/>
      <path class="cls-1" d="M20.18,15.29h1.77v.67c.29-.47.73-.73,1.39-.73h.04v1.28c-.15-.04-.31-.06-.48-.06-.38,0-.76.11-.95.33v2.02h-1.77v-3.5Z"/>
      <path class="cls-1" d="M23.59,14.46h1.74v2.18s1.25-1.34,1.25-1.34h1.79l-1.35,1.38,1.39,2.12h-1.9l-.71-1.2-.46.45v.75s-1.74,0-1.74,0v-4.34Z"/>
      <path class="cls-1" d="M28.47,14.46h1.82v3.24h2.76v1.1h-4.58v-4.34Z"/>
      <path class="cls-1" d="M33.29,14.21h1.76v.84h-1.76v-.84ZM33.29,15.29h1.76v3.5h-1.76v-3.5Z"/>
      <path class="cls-1" d="M36.28,16.21h-1.03v-.92h1.03v-.12c0-.66.35-1.01,1.15-1.01h1.7v.82h-.87c-.18,0-.25.07-.25.21v.11h1.12v.92h-1.12v2.58h-1.74v-2.58Z"/>
      <path class="cls-1" d="M39.14,17.05c0-1.13.95-1.86,2.29-1.86s2.29.71,2.29,1.92v.1h-2.91c.04.51.29.74.66.74.3,0,.52-.15.61-.49h1.62c-.2.9-1.1,1.45-2.27,1.45-1.33,0-2.28-.71-2.28-1.86ZM40.83,16.66h1.23c-.09-.38-.31-.56-.61-.56s-.54.18-.62.56Z"/>
    </g>
    <g>
      <path class="cls-1" d="M18.33,20.76h1.15c.56,0,.76.15.76.6,0,.32-.1.47-.35.53h0c.3.06.41.23.41.59,0,.49-.21.65-.81.65h-1.16v-2.37ZM19.53,21.78c.34,0,.46-.09.46-.4s-.12-.39-.51-.39h-.89v.79h.94ZM19.49,22.89c.42,0,.55-.08.55-.44s-.12-.44-.5-.44h-.96v.88h.91Z"/>
      <path class="cls-1" d="M21.38,20.76h.35l1.02,2.37h-.27l-.24-.55h-1.38l-.24.55h-.27l1.02-2.37ZM22.14,22.34l-.59-1.37h0l-.59,1.37h1.18Z"/>
      <path class="cls-1" d="M22.95,20.76h.26v2.13h1.34v.23h-1.6v-2.37Z"/>
      <path class="cls-1" d="M25.58,20.76h.35l1.02,2.37h-.27l-.24-.55h-1.38l-.24.55h-.27l1.02-2.37ZM26.34,22.34l-.59-1.37h0l-.59,1.37h1.18Z"/>
      <path class="cls-1" d="M27.16,20.76h.37l1.49,2.11h0v-2.11h.24v2.37h-.37l-1.49-2.11h0v2.11h-.24v-2.37Z"/>
      <path class="cls-1" d="M29.63,21.95c0-.96.19-1.23,1.09-1.23.8,0,1.02.24,1.02.82v.03h-.25v-.02c0-.43-.12-.6-.76-.6-.71,0-.84.15-.84.99s.12.99.84.99c.66,0,.77-.15.77-.64v-.02h.25v.03c0,.63-.19.86-1.03.86-.91,0-1.09-.27-1.09-1.23Z"/>
      <path class="cls-1" d="M32.09,20.76h1.71v.23h-1.45v.79h1.38v.23h-1.38v.87h1.46v.23h-1.72v-2.37Z"/>
    </g>
    <rect class="cls-2" x="2.87" y="27.65" width="46.39" height="3.09"/>
    <g>
      <g>
        <path d="M7.57,28.55h.14v1.3h-.14v-1.3Z"/>
        <path d="M7.94,28.55h.52c.51,0,.61.15.61.65s-.1.65-.61.65h-.52v-1.3ZM8.46,29.72c.4,0,.47-.08.47-.52s-.07-.52-.47-.52h-.38v1.04h.38Z"/>
        <path d="M9.27,28.55h.94v.13h-.8v.43h.76v.13h-.76v.48h.8v.13h-.94v-1.3Z"/>
        <path d="M10.4,28.55h.21l.82,1.16h0v-1.16h.13v1.3h-.21l-.82-1.16h0v1.16h-.13v-1.3Z"/>
        <path d="M12.17,28.68h-.48v-.13h1.1v.13h-.48v1.17h-.14v-1.17Z"/>
        <path d="M12.91,28.55h.14v1.3h-.14v-1.3Z"/>
        <path d="M13.66,28.68h-.48v-.13h1.1v.13h-.48v1.17h-.14v-1.17Z"/>
        <path d="M14.84,29.38l-.56-.83h.16l.48.7.48-.7h.15l-.56.83v.46h-.14v-.46Z"/>
      </g>
      <g>
        <path d="M34.22,28.54h.19l.56,1.3h-.15l-.13-.3h-.76l-.13.3h-.15l.56-1.3ZM34.64,29.41l-.32-.75h0l-.32.75h.65Z"/>
        <path d="M35.05,29.41v-.87h.14v.84c0,.25.05.35.43.35s.43-.1.43-.35v-.84h.14v.87c0,.31-.1.45-.57.45s-.57-.14-.57-.45Z"/>
        <path d="M36.79,28.67h-.48v-.13h1.1v.13h-.48v1.17h-.14v-1.17Z"/>
        <path d="M37.44,29.19c0-.53.1-.67.62-.67s.62.15.62.67-.1.67-.62.67-.62-.15-.62-.67ZM38.06,29.73c.42,0,.48-.08.48-.54s-.06-.54-.48-.54-.48.08-.48.54.06.54.48.54Z"/>
        <path d="M38.87,28.54h.21l.82,1.16h0v-1.16h.13v1.3h-.21l-.82-1.16h0v1.16h-.13v-1.3Z"/>
        <path d="M40.23,29.19c0-.53.1-.67.62-.67s.62.15.62.67-.1.67-.62.67-.62-.15-.62-.67ZM40.85,29.73c.42,0,.48-.08.48-.54s-.06-.54-.48-.54-.48.08-.48.54.06.54.48.54Z"/>
        <path d="M41.66,28.54h.22l.55,1.14h0l.55-1.14h.22v1.3h-.14v-1.16h0l-.56,1.16h-.15l-.56-1.16h0v1.16h-.13v-1.3Z"/>
        <path d="M43.87,29.38l-.56-.83h.16l.48.7.48-.7h.15l-.56.83v.46h-.14v-.46Z"/>
      </g>
      <g>
        <path d="M17.91,28.56h.64c.33,0,.45.11.45.42s-.12.42-.45.42h-.5v.47h-.14v-1.3ZM18.55,29.26c.25,0,.32-.07.32-.29s-.07-.29-.32-.29h-.49v.58h.49Z"/>
        <path d="M19.16,28.56h.58c.37,0,.49.09.49.37,0,.19-.06.29-.21.32h0c.15.03.2.11.2.3v.3h-.14v-.26c0-.23-.05-.27-.31-.27h-.48v.53h-.14v-1.3ZM19.78,29.2c.24,0,.31-.06.31-.26s-.07-.25-.36-.25h-.43v.51h.48Z"/>
        <path d="M20.41,29.21c0-.53.1-.67.62-.67s.62.15.62.67-.1.67-.62.67-.62-.15-.62-.67ZM21.03,29.75c.42,0,.48-.08.48-.54s-.06-.54-.48-.54-.48.08-.48.54.06.54.48.54Z"/>
        <path d="M21.84,28.56h.52c.51,0,.61.15.61.65s-.1.65-.61.65h-.52v-1.3ZM22.36,29.73c.4,0,.47-.08.47-.52s-.07-.52-.47-.52h-.38v1.04h.38Z"/>
        <path d="M23.16,29.43v-.87h.14v.84c0,.25.05.35.43.35s.43-.1.43-.35v-.84h.14v.87c0,.31-.1.45-.57.45s-.57-.14-.57-.45Z"/>
        <path d="M24.49,29.21c0-.53.1-.67.6-.67.44,0,.56.13.56.45h0s-.14.01-.14.01h0c0-.24-.07-.34-.42-.34-.39,0-.46.08-.46.54s.07.54.46.54c.36,0,.42-.08.42-.35h0s.14,0,.14,0h0c0,.36-.11.49-.56.49-.5,0-.6-.15-.6-.67Z"/>
        <path d="M26.17,28.69h-.48v-.13h1.1v.13h-.48v1.17h-.14v-1.17Z"/>
        <path d="M26.91,28.56h.14v1.3h-.14v-1.3Z"/>
        <path d="M27.16,28.56h.15l.49,1.18h0l.49-1.18h.15l-.54,1.3h-.19l-.54-1.3Z"/>
        <path d="M28.55,28.56h.14v1.3h-.14v-1.3Z"/>
        <path d="M29.3,28.69h-.48v-.13h1.1v.13h-.48v1.17h-.14v-1.17Z"/>
        <path d="M30.48,29.39l-.56-.83h.16l.48.7.48-.7h.15l-.56.83v.46h-.14v-.46Z"/>
      </g>
      <rect x="16.66" y="28.2" width=".15" height="2.03"/>
      <rect x="32.34" y="28.2" width=".15" height="2.03"/>
    </g>
  </g>
</svg>