<?xml version="1.0" encoding="UTF-8"?>
<svg id="fondo" xmlns="http://www.w3.org/2000/svg" viewBox="0 0 244.49 27.45">
  <defs>
    <style>
      .cls-1 {
        fill: #fff;
      }
    </style>
  </defs>
  <g>
    <path class="cls-1" d="M0,.68h9.7c7.83,0,11.71,5.36,11.71,13.23s-4.09,13.02-11.96,13.02H0V.68ZM9.31,23.78c5.93,0,8.36-3.84,8.36-9.88S15.48,3.82,9.52,3.82H3.63v19.96h5.68Z"/>
    <path class="cls-1" d="M25.3.68h3.42v3.81h-3.42V.68ZM25.37,7.98h3.28v18.94h-3.28V7.98Z"/>
    <path class="cls-1" d="M31.96,21.17h3.32c.39,2.75,2.5,3.67,5.22,3.67,3,0,4.27-1.31,4.27-3,0-2.08-1.59-2.61-4.94-3.28-3.7-.78-7.05-1.55-7.05-5.71,0-3.24,2.54-5.29,6.95-5.29,4.76,0,7.12,2.22,7.55,5.5h-3.28c-.28-1.94-1.62-3.03-4.34-3.03-2.57,0-3.67,1.2-3.67,2.65,0,1.98,1.83,2.36,5.04,3,3.77.74,7.02,1.59,7.02,6,0,3.84-3.17,5.82-7.62,5.82-5.22,0-8.18-2.47-8.47-6.31Z"/>
    <path class="cls-1" d="M50.91,17.47c0-5.5,3.56-9.95,9.28-9.95s9.21,4.44,9.21,9.95-3.49,9.98-9.21,9.98-9.28-4.44-9.28-9.98ZM66.04,17.47c0-4.09-2.01-7.34-5.89-7.34s-5.89,3.24-5.89,7.34,2.01,7.3,5.89,7.3,5.89-3.21,5.89-7.3Z"/>
    <path class="cls-1" d="M76.13,11.4h.11c1.16-2.19,3.1-3.67,5.61-3.67.53,0,.85.07,1.2.21v3.1h-.11c-.46-.14-.78-.18-1.34-.18-2.93,0-5.43,2.19-5.43,5.75v10.3h-3.28V7.98h3.24v3.42Z"/>
    <path class="cls-1" d="M84.53,17.5c0-6.24,3.6-9.98,8.29-9.98,2.68,0,4.8,1.34,6,3.35h.07c-.07-.85-.11-2.22-.11-3.49V.68h3.28v26.24h-3.24v-2.72h-.07c-1.2,2.05-3.21,3.28-5.85,3.28-5.11,0-8.36-3.88-8.36-9.98ZM98.96,17.54c0-4.27-2.01-7.27-5.82-7.27-3.49,0-5.26,3.1-5.26,7.27s1.76,7.23,5.26,7.23c4.06,0,5.82-3.07,5.82-7.23Z"/>
    <path class="cls-1" d="M105.56,17.47c0-5.5,3.63-9.95,9.06-9.95,2.82,0,5.01,1.09,6.49,2.93,1.55,1.87,2.33,4.59,2.33,7.8h-14.53c.25,3.7,2.26,6.53,5.93,6.53,2.61,0,4.41-1.23,5.01-3.25h3.21c-.85,3.53-3.88,5.93-8.25,5.93-5.82,0-9.24-4.44-9.24-9.98ZM108.98,15.88h10.97c-.18-3.63-2.05-5.82-5.33-5.82s-5.22,2.47-5.64,5.82Z"/>
    <path class="cls-1" d="M130.18,11.4h.11c1.16-2.19,3.1-3.67,5.61-3.67.53,0,.85.07,1.2.21v3.1h-.11c-.46-.14-.78-.18-1.34-.18-2.93,0-5.43,2.19-5.43,5.75v10.3h-3.28V7.98h3.24v3.42Z"/>
  </g>
  <g>
    <path class="cls-1" d="M187.07,26.92V.11h3.82v22.99h13.41v3.82h-17.23Z"/>
    <path class="cls-1" d="M210.03,26.92v-1.91h-1.91v-1.91h-1.91v-3.84h1.91v-1.91h3.82v-1.91h7.67v-1.92h-1.92v-1.91h-5.75v1.91h-5.73v-1.91h1.91v-1.91h1.91v-1.91h9.58v1.91h1.91v1.91h1.91v15.32h-3.82v-1.91h-1.92v1.91h-7.66ZM217.69,23.1v-1.91h1.92v-3.84h-1.92v1.91h-6.7v3.84h6.7Z"/>
    <path class="cls-1" d="M227.26,26.92V.11h3.82v9.58h1.91v-1.91h7.67v1.91h1.91v1.91h1.91v11.5h-1.91v1.91h-1.91v1.91h-7.67v-1.91h-1.91v1.91h-3.82ZM238.74,23.1v-1.91h1.92v-7.67h-1.92v-1.91h-5.75v1.91h-1.91v7.67h1.91v1.91h5.75Z"/>
  </g>
  <g>
    <polygon class="cls-1" points="178.41 4.81 176.41 4.81 176.41 1.98 173.58 1.98 173.58 -.02 178.41 -.02 178.41 4.81"/>
    <polygon class="cls-1" points="150.58 27.04 145.74 27.04 145.74 22.21 147.74 22.21 147.74 25.04 150.58 25.04 150.58 27.04"/>
    <polygon class="cls-1" points="147.74 4.81 145.74 4.81 145.74 -.02 150.58 -.02 150.58 1.98 147.74 1.98 147.74 4.81"/>
    <polygon class="cls-1" points="178.41 27.04 173.58 27.04 173.58 25.04 176.41 25.04 176.41 22.21 178.41 22.21 178.41 27.04"/>
  </g>
</svg>