<?xml version="1.0" encoding="UTF-8"?>
<svg id="Capa_1" xmlns="http://www.w3.org/2000/svg" xmlns:x="http://ns.adobe.com/Extensibility/1.0/" version="1.1" viewBox="0 0 65.3 95">
  <!-- Generator: Adobe Illustrator 29.6.1, SVG Export Plug-In . SVG Version: 2.1.1 Build 9)  -->
  <path d="M1.6,25.1h8.5c.9,0,1.6-.7,1.6-1.6s-.7-1.6-1.6-1.6H1.6c-.9,0-1.6.7-1.6,1.6.1.9.8,1.6,1.6,1.6Z"/>
  <path d="M13,15.1c.6.6,1.6.6,2.2,0,.6-.6.6-1.6,0-2.2l-6-6c-.6-.6-1.6-.6-2.2,0s-.6,1.6,0,2.2l6,6Z"/>
  <path d="M23.6,11.7c.9,0,1.6-.7,1.6-1.6V1.6c0-.9-.7-1.6-1.6-1.6s-1.6.7-1.6,1.6v8.5c0,.9.7,1.6,1.6,1.6Z"/>
  <path d="M34.2,15.1l6-6c.6-.6.6-1.6,0-2.2s-1.6-.6-2.2,0l-6,6c-.6.6-.6,1.6,0,2.2.6.7,1.6.7,2.2,0Z"/>
  <path d="M35.4,23.5c0,.9.7,1.6,1.6,1.6h8.5c.9,0,1.6-.7,1.6-1.6s-.7-1.6-1.6-1.6h-8.5c-.8.1-1.6.8-1.6,1.6Z"/>
  <path d="M59.4,43.7c-.5,0-.9,0-1.4,0-1.8,0-3.5.7-4.7,1.8-1-2.7-3.7-4.7-6.7-4.7s-.9,0-1.4,0c-1.3.3-2.5.9-3.5,1.8-1.1-2.6-3.6-4.4-6.6-4.4h-.4c-1.5,0-2.8.6-3.9,1.5v-16c0-3.5-2.4-6.6-5.8-7.2-.5-.1-1-.1-1.4-.1-4,0-7.2,3.2-7.2,7.2v32.6l-2.9-4c-1.1-1.4-2.5-2.4-4-2.9-.7-.2-1.4-.3-2.1-.3-1.5,0-3,.4-4.2,1.3h0C.1,52.5-.9,56.6.8,60.1l12.3,24.1c3.4,6.7,10.2,10.8,17.7,10.8h14.7c10.7,0,19.4-8.2,19.8-18.8v-25.3c-.1-3.5-2.5-6.5-5.9-7.2ZM45.4,91.9h-14.8c-6.3,0-12-3.5-14.9-9.1L3.4,58.7c-1-2-.4-4.5,1.4-5.8.7-.5,1.6-.8,2.5-.8s.8,0,1.3.2c1,.3,1.8.9,2.4,1.7l6.2,8.3c.3.4.7.5,1,.5.7,0,1.3-.5,1.3-1.3V23.5c0-2.2,1.8-4,4-4s.5,0,.8.1c1.9.4,3.2,2.2,3.2,4.1v32.4c0,.9.8,1.7,1.7,1.7s1.7-.8,1.7-1.7v-10.6c0-2.2,1.6-4.1,3.8-4.2h.2c2.2,0,4,1.8,4,4v12.4c0,.9.8,1.7,1.7,1.7s1.7-.8,1.7-1.7v-9.7c0-2,1.3-3.7,3.2-4.1.3,0,.5,0,.8,0,2.2,0,4,1.8,4,4v11.8c0,.9.8,1.7,1.7,1.7s1.7-.8,1.7-1.7v-8.9c0-2.2,1.8-4,4-4s.5,0,.8,0c1.9.4,3.2,2.2,3.2,4.1v24.7s.8,14-16.3,16.3Z"/>
</svg>