<svg id="Capa_1" data-name="Capa 1" xmlns="http://www.w3.org/2000/svg" viewBox="0 0 1500 1072"><defs><style>.cls-1{fill:#faeede;}.cls-2{fill:#e84550;}</style></defs><title>pedrochesvalley</title><rect class="cls-1" x="-28.19" y="-20.15" width="1556.28" height="1112.3"/><path class="cls-2" d="M526,491.62l23.72,5.51-3.16,13.62-67.46-15.67,5.35-23q2.31-10,9.91-14.52t17.5-2.21q9.92,2.31,14.29,9.52t2,17.65ZM514.69,489l2.18-9.36a7.64,7.64,0,0,0-1.15-6.61c-1.37-1.82-3.67-3.1-6.92-3.86a13.82,13.82,0,0,0-8.55.32,7.1,7.1,0,0,0-4.38,5.13l-2.21,9.5Z"/><path class="cls-2" d="M554.44,406.57l-10.65,19,16,9,12.6-22.49,10.13,5.68-19.45,34.68-60.4-33.88,19.4-34.6,10.16,5.7-12.56,22.4,14.28,8,10.65-19Z"/><path class="cls-2" d="M590.65,407l-48.79-49.15,13-12.9q8.6-8.55,19.14-8.15t20.1,9.81l7.91,8q9.6,9.69,10,20.29t-8.62,19.51ZM560,356.24l32.41,32.64,3-2.95c3.31-3.28,4.76-6.47,4.39-9.55s-2.66-6.8-6.84-11.14l-8.47-8.54Q577.6,349.82,573,349c-3.09-.53-6.21.69-9.39,3.65Z"/><path class="cls-2" d="M641.63,334.3l-6.13,3.24,11.83,22.37L635,366.45l-32.38-61.22,19.72-10.43q9.29-4.91,16.9-2.78t12.3,11q6.47,12.18.17,21.76l24,19.39.32.59-13.29,7Zm-11.58-7.06,7-3.72a7.35,7.35,0,0,0,4.25-5.39,12.11,12.11,0,0,0-1.64-7.56q-4.86-9.21-12-5.4L620.4,309Z"/><path class="cls-2" d="M730.85,304q2.53,13.71-2.54,22.48t-16.57,10.9q-11.47,2.13-19.4-4.17T681.8,313.38l-2.16-11.64q-2.58-14,2.45-23.12t16.6-11.22Q710,265.3,718,271.82t10.66,20.49Zm-15.91-8.86q-1.71-9.21-5.15-13.21a9.84,9.84,0,0,0-16.26,2.83q-1.81,4.83-.28,13.67l2.24,12.11q1.66,8.94,5.11,12.68t9,2.71a9,9,0,0,0,7.23-5.63q1.86-4.62.29-13.33Z"/><path class="cls-2" d="M800.47,314.62q-2,11.7-8.78,17t-17.93,3.95q-11.65-1.43-16.93-9.86t-3.53-22.64l1.41-11.57q1.74-14.16,9.09-21.05T782.58,265q11.25,1.38,16.31,8.37t4.42,18.84l-13.92-1.7c.46-4.86.13-8.3-1-10.31s-3.54-3.23-7.2-3.68-6.49.52-8.36,2.93-3.2,6.58-4,12.52l-1.58,13q-1.26,10.25.57,14.35t7.39,4.79c3.65.45,6.27-.14,7.88-1.74s2.79-4.74,3.54-9.37Z"/><path class="cls-2" d="M854.93,361.65l-12.65-5.84,12.41-26.91-18.75-8.64-12.4,26.91-12.7-5.86,29-62.89,12.7,5.86L840.8,309.72l18.75,8.65,11.73-25.45,12.66,5.84Z"/><path class="cls-2" d="M914.88,372.52l-16.35-14.4L886.4,371.9l19.34,17-7.66,8.71-29.85-26.28,45.76-52,29.77,26.22-7.7,8.74-19.27-17L906,349.66l16.35,14.4Z"/><path class="cls-2" d="M971.2,373.59,980,385.9l-19.69-2.2-6.52-9.13Z"/><path class="cls-2" d="M956,461.13c2.62-1,4.33-2.51,5.14-4.38s1.22-4.87,1.25-9q-.18-11.14,3-17.35a18.56,18.56,0,0,1,9.95-8.88,17.51,17.51,0,0,1,15.35.55q7.23,3.8,10.77,12.68a23.65,23.65,0,0,1,1.73,11.55,18.81,18.81,0,0,1-4.2,9.95,22.79,22.79,0,0,1-9.34,6.62l-5.17-12.95c3-1.2,5-2.75,6.1-4.66a7.26,7.26,0,0,0,.15-6.48,7.47,7.47,0,0,0-4.13-4.5,8.12,8.12,0,0,0-6.17.26,7.13,7.13,0,0,0-3.94,4c-.87,2-1.35,5.08-1.44,9.28q.35,10.77-2.89,17t-10.89,9.29q-8.39,3.36-15.25-.11t-10.53-12.65a26.81,26.81,0,0,1-2-12.37,20.53,20.53,0,0,1,4.13-10.94,22.86,22.86,0,0,1,10.11-7.39l5.2,13q-5.58,2.24-7.22,5.4t.3,8.07Q948.85,464,956,461.13Z"/><path class="cls-2" d="M969.07,548.63l49.43,14.68-1,15.57-67.91-24.15.88-14.53,70.34-15.58-.94,15.48Z"/><path class="cls-2" d="M948.1,618.64l6.59-17.9-12-8.37,5.1-13.88,57.53,44.2-4.42,12-72.51-3.45,5.15-14Zm16.47-11-4.46,12.14,25.39,2.45Z"/><path class="cls-2" d="M922.48,659l-14.6,19.73-9.32-6.91,22.91-31,55.67,41.19-8.32,11.25Z"/><path class="cls-2" d="M884.94,699.47l-19.13,15.37-7.27-9.05,30.05-24.12,43.35,54L921,744.42Z"/><path class="cls-2" d="M826,754.45l19.95-8.77-7.39-16.8-23.6,10.37-4.67-10.63,36.4-16L874.51,776l-36.32,16-4.69-10.67L857,771l-6.58-15-19.94,8.77Z"/><path class="cls-2" d="M781.75,772.92l-6,32.25-15.07,2.11L772.92,761l-3.48-24.87,14-2L787,759l24.54,41.13-15.07,2.11Z"/><circle class="cls-2" cx="509.7" cy="549.51" r="8.94"/><circle class="cls-2" cx="724.22" cy="772.49" r="8.94"/><path class="cls-2" d="M639.34,723.67q6.87-14.13,16.5-18.1t21.78,1q12.48,5.09,15.85,17.49t-3.19,28.64l-7.64,18.71q-6.66,16.27-17.8,22.51t-23.92,1Q628.83,790,625,780.34T626.13,756L633,758.8q-3.84,12.11-1.3,19t11.83,10.7q9.76,4,18.19-1.07t14.07-18.91l7.55-18.48q5.61-13.74,3.45-23.53t-11.74-13.7q-10.06-4.11-16.61-.92T646.2,726.47Z"/><path class="cls-2" d="M629.57,681.13l-67.44,64.22-16.28-17.1q-8.69-9.12-8.69-18.08t8.69-17.24a23,23,0,0,1,11.32-6.18,18.91,18.91,0,0,1,11.91,1.38,18.41,18.41,0,0,1-1.84-13.39,25.2,25.2,0,0,1,7.61-13q8.8-8.38,18.49-8.42t18.11,8.81ZM587.3,711.31,575.61,699q-5.73-6-12.1-6.31t-12.67,5.71q-6.45,6.14-6.37,12.28t6.38,12.78L562.1,735.3Zm4.81-4.59,27.52-26.19-13.32-14q-5.73-6-12.75-6T580,666.92q-6.12,5.82-6.68,12.48T578.05,692Z"/><path class="cls-2" d="M580.69,621.43l-88,30.59-7.2-20.72q-5-14.31,1.28-25.84t22.24-17.34l18.41-6.41q16.56-5.76,28.79-.56t17.53,20.41Zm-83.82,21.44,75-26.1-4.64-13.35q-4.1-11.77-13.63-15.71t-23.12.6l-18.42,6.4q-13.53,4.71-18.83,13.63t-1.13,20.87Z"/></svg>