<?xml version="1.0" encoding="UTF-8"?>
<svg id="Capa_1" data-name="Capa 1" xmlns="http://www.w3.org/2000/svg" viewBox="0 0 100 100">
  <defs>
    <style>
      .cls-1 {
        fill: #fff;
        fill-rule: evenodd;
      }

      .cls-2 {
        fill: none;
        stroke: #fff;
        stroke-miterlimit: 10;
        stroke-width: 2px;
      }
    </style>
  </defs>
  <path class="cls-1" d="M46.32,33.43c1.02,0,1.84.82,1.84,1.84v29.47c0,1.02-.82,1.84-1.84,1.84s-1.84-.82-1.84-1.84v-29.47c0-1.02.82-1.84,1.84-1.84ZM60.56,35.03c1.02,0,1.84.82,1.84,1.84v26.26c0,1.02-.82,1.84-1.84,1.84s-1.84-.82-1.84-1.84v-26.26c0-1.02.82-1.84,1.84-1.84ZM53.44,37.48c1.02,0,1.84.82,1.84,1.84v21.35c0,1.02-.82,1.84-1.84,1.84s-1.84-.82-1.84-1.84v-21.35c0-1.02.82-1.84,1.84-1.84ZM39.2,42.42c1.02,0,1.84.82,1.84,1.84v9.78c0,1.02-.82,1.84-1.84,1.84s-1.84-.82-1.84-1.84v-9.78c0-1.02.82-1.84,1.84-1.84ZM67.68,38.62c1.02,0,1.84.82,1.84,1.84v17.38c0,1.02-.82,1.84-1.84,1.84s-1.84-.82-1.84-1.84v-17.38c0-1.02.82-1.84,1.84-1.84ZM32.08,39.83c1.02,0,1.84.82,1.84,1.84v14.96c0,1.02-.82,1.84-1.84,1.84s-1.84-.82-1.84-1.84v-14.96c0-1.02.82-1.84,1.84-1.84ZM74.8,44.75c1.02,0,1.84.82,1.84,1.84v5.12c0,1.02-.82,1.84-1.84,1.84s-1.84-.82-1.84-1.84v-5.12c0-1.02.82-1.84,1.84-1.84ZM25.2,44.75c1.02,0,1.84.82,1.84,1.84v5.12c0,1.02-.82,1.84-1.84,1.84s-1.84-.82-1.84-1.84v-5.12c0-1.02.82-1.84,1.84-1.84Z"/>
  <circle class="cls-2" cx="50" cy="50" r="35.72"/>
</svg>